<svg width="12" height="12" viewBox="0 0 12 12" fill="none" xmlns="http://www.w3.org/2000/svg">
<path d="M1.7215 0.296556C1.32769 -0.0972271 0.689181 -0.0972274 0.295363 0.296556C-0.0984544 0.690338 -0.0984545 1.32879 0.295363 1.72257L4.57325 6.00008L0.295516 10.2774C-0.0983021 10.6712 -0.0983021 11.3097 0.295516 11.7034C0.689334 12.0972 1.32784 12.0972 1.72166 11.7034L5.99939 7.42609L10.2783 11.7047C10.6722 12.0984 11.3107 12.0984 11.7045 11.7047C12.0983 11.3109 12.0983 10.6724 11.7045 10.2787L7.42553 6.00008L11.7046 1.72135C12.0985 1.32757 12.0985 0.68912 11.7046 0.295337C11.3108 -0.0984456 10.6723 -0.0984459 10.2785 0.295337L5.99939 4.57406L1.7215 0.296556Z" fill="#1565D8"/>
</svg>
